<?xml version="1.0" encoding="UTF-8" standalone="no"?>
<!-- Created with Inkscape (http://www.inkscape.org/) -->

<svg
   width="64pt"
   height="64pt"
   viewBox="0 0 22.577778 22.577778"
   version="1.1"
   id="svg831"
   inkscape:version="1.1.1 (3bf5ae0d25, 2021-09-20)"
   sodipodi:docname="TEMPLATE.svg"
   inkscape:export-filename="C:\Users\User\Desktop\CARLOS PROJECT\4. APRIL 2\Export\Filedline\24 - Payment Calculation.png"
   inkscape:export-xdpi="576"
   inkscape:export-ydpi="576"
   xmlns:inkscape="http://www.inkscape.org/namespaces/inkscape"
   xmlns:sodipodi="http://sodipodi.sourceforge.net/DTD/sodipodi-0.dtd"
   xmlns="http://www.w3.org/2000/svg"
   xmlns:svg="http://www.w3.org/2000/svg"
   xmlns:rdf="http://www.w3.org/1999/02/22-rdf-syntax-ns#"
   xmlns:cc="http://creativecommons.org/ns#"
   xmlns:dc="http://purl.org/dc/elements/1.1/">
  <defs
     id="defs825">
    <pattern
       id="EMFhbasepattern"
       patternUnits="userSpaceOnUse"
       width="6"
       height="6"
       x="0"
       y="0" />
    <pattern
       id="EMFhbasepattern-9"
       patternUnits="userSpaceOnUse"
       width="6"
       height="6"
       x="0"
       y="0" />
    <pattern
       id="EMFhbasepattern-0"
       patternUnits="userSpaceOnUse"
       width="6"
       height="6"
       x="0"
       y="0" />
    <pattern
       id="EMFhbasepattern-7"
       patternUnits="userSpaceOnUse"
       width="6"
       height="6"
       x="0"
       y="0" />
    <pattern
       id="EMFhbasepattern-2"
       patternUnits="userSpaceOnUse"
       width="6"
       height="6"
       x="0"
       y="0" />
    <pattern
       id="EMFhbasepattern-98"
       patternUnits="userSpaceOnUse"
       width="6"
       height="6"
       x="0"
       y="0" />
    <pattern
       id="EMFhbasepattern-6"
       patternUnits="userSpaceOnUse"
       width="6"
       height="6"
       x="0"
       y="0" />
    <pattern
       id="EMFhbasepattern-01"
       patternUnits="userSpaceOnUse"
       width="6"
       height="6"
       x="0"
       y="0" />
    <pattern
       id="EMFhbasepattern-07"
       patternUnits="userSpaceOnUse"
       width="6"
       height="6"
       x="0"
       y="0" />
    <pattern
       id="EMFhbasepattern-8"
       patternUnits="userSpaceOnUse"
       width="6"
       height="6"
       x="0"
       y="0" />
    <pattern
       id="EMFhbasepattern-4"
       patternUnits="userSpaceOnUse"
       width="6"
       height="6"
       x="0"
       y="0" />
    <pattern
       id="EMFhbasepattern-40"
       patternUnits="userSpaceOnUse"
       width="6"
       height="6"
       x="0"
       y="0" />
    <pattern
       id="EMFhbasepattern-08"
       patternUnits="userSpaceOnUse"
       width="6"
       height="6"
       x="0"
       y="0" />
    <pattern
       id="EMFhbasepattern-04"
       patternUnits="userSpaceOnUse"
       width="6"
       height="6"
       x="0"
       y="0" />
    <pattern
       id="EMFhbasepattern-014"
       patternUnits="userSpaceOnUse"
       width="6"
       height="6"
       x="0"
       y="0" />
    <pattern
       id="EMFhbasepattern-27"
       patternUnits="userSpaceOnUse"
       width="6"
       height="6"
       x="0"
       y="0" />
    <pattern
       id="EMFhbasepattern-09"
       patternUnits="userSpaceOnUse"
       width="6"
       height="6"
       x="0"
       y="0" />
    <pattern
       id="EMFhbasepattern-5"
       patternUnits="userSpaceOnUse"
       width="6"
       height="6"
       x="0"
       y="0" />
    <pattern
       id="EMFhbasepattern-018"
       patternUnits="userSpaceOnUse"
       width="6"
       height="6"
       x="0"
       y="0" />
  </defs>
  <sodipodi:namedview
     id="base"
     pagecolor="#ffffff"
     bordercolor="#666666"
     borderopacity="1.0"
     inkscape:pageopacity="0.0"
     inkscape:pageshadow="2"
     inkscape:zoom="4.5878907"
     inkscape:cx="33.130693"
     inkscape:cy="66.806299"
     inkscape:document-units="pt"
     inkscape:current-layer="layer1"
     showgrid="false"
     units="pt"
     inkscape:window-width="1920"
     inkscape:window-height="1001"
     inkscape:window-x="-9"
     inkscape:window-y="-9"
     inkscape:window-maximized="1"
     inkscape:pagecheckerboard="true"
     inkscape:showpageshadow="false"
     inkscape:object-paths="true"
     inkscape:snap-intersection-paths="true"
     inkscape:snap-smooth-nodes="true"
     inkscape:snap-midpoints="true"
     showguides="true"
     inkscape:snap-bbox="true"
     inkscape:bbox-nodes="true"
     inkscape:snap-nodes="false"
     inkscape:snap-global="true">
    <inkscape:grid
       type="xygrid"
       id="grid1378" />
    <sodipodi:guide
       position="0.97013831,21.607643"
       orientation="78.000048,0"
       id="guide1380"
       inkscape:locked="false" />
    <sodipodi:guide
       position="0.97013831,0.97013129"
       orientation="0,78.000005"
       id="guide1382"
       inkscape:locked="false" />
    <sodipodi:guide
       position="21.607639,0.97013129"
       orientation="-78.000048,0"
       id="guide1384"
       inkscape:locked="false" />
    <sodipodi:guide
       position="21.607639,21.607643"
       orientation="0,-78.000005"
       id="guide1386"
       inkscape:locked="false" />
  </sodipodi:namedview>
  <metadata
     id="metadata828">
    <rdf:RDF>
      <cc:Work
         rdf:about="">
        <dc:format>image/svg+xml</dc:format>
        <dc:type
           rdf:resource="http://purl.org/dc/dcmitype/StillImage" />
      </cc:Work>
    </rdf:RDF>
  </metadata>
  <g
     inkscape:label="Icon"
     inkscape:groupmode="layer"
     id="layer1"
     transform="translate(0,-274.42223)">
    <g
       id="g19712"
       style="display:inline;stroke-width:0.788953"
       transform="matrix(1.2675031,0,0,1.2675031,-76.766718,-41.343834)">
      <g
         id="g250366"
         style="display:inline;stroke-width:0.788953">
        <path
           style="color:#000000;fill:#fcbd11;stroke-width:0.788953;stroke-linecap:round;stroke-linejoin:round;-inkscape-stroke:none"
           d="m 69.998047,261.67383 a 0.26461046,0.26461046 0 0 0 -0.228516,0.13281 l -1.146484,1.98438 a 0.26461046,0.26461046 0 0 0 0,0.26367 l 1.146484,1.98437 a 0.26461046,0.26461046 0 0 0 0.228516,0.13281 h 2.291015 a 0.26461046,0.26461046 0 0 0 0.228516,-0.13281 l 1.146484,-1.98437 a 0.26461046,0.26461046 0 0 0 0,-0.26367 l -1.146484,-1.98438 a 0.26461046,0.26461046 0 0 0 -0.228516,-0.13281 z"
           id="path334723" />
        <path
           style="color:#000000;fill:#f9f9f9;stroke-width:0.788953;stroke-linecap:round;stroke-linejoin:round;-inkscape-stroke:none"
           d="m 71.138672,262.73242 c -0.623888,0.01 -1.185547,0.51467 -1.185547,1.18945 -4e-6,0.65443 0.535038,1.19141 1.189453,1.19141 0.654416,0 1.191409,-0.53699 1.191406,-1.19141 a 0.26460996,0.26460996 0 0 0 0,-0.004 c -0.01008,-0.65727 -0.550794,-1.18555 -1.191406,-1.18555 a 0.26460996,0.26460996 0 0 0 -0.0039,0 z"
           id="path334915" />
        <path
           style="color:#000000;fill:#a3b9c9;stroke-width:0.788953;stroke-linecap:round;stroke-linejoin:round;-inkscape-stroke:none"
           d="m 76.433594,252.90625 c -1.416618,0.66205 -2.807616,1.36807 -4.199219,2.06641 a 0.26460996,0.26460996 0 0 0 -0.05078,0.43945 l 1.953125,1.61719 a 0.26460996,0.26460996 0 0 0 0.294922,0.0293 c 0.679023,-0.36733 1.463311,-0.8829 1.996093,-1.55468 0.532783,-0.67178 0.797248,-1.55195 0.355469,-2.47266 a 0.26460996,0.26460996 0 0 0 -0.349609,-0.125 z"
           id="path333841" />
        <path
           style="color:#000000;fill:#fcbd11;stroke-width:0.788953;stroke-linecap:round;stroke-linejoin:round;-inkscape-stroke:none"
           d="m 73.4375,261.67383 a 0.26461046,0.26461046 0 0 0 -0.228516,0.13281 l -1.146484,1.98438 a 0.26461046,0.26461046 0 0 0 0,0.26367 l 1.146484,1.98437 a 0.26461046,0.26461046 0 0 0 0.228516,0.13281 h 2.291016 a 0.26461046,0.26461046 0 0 0 0.228515,-0.13281 l 1.146485,-1.98437 a 0.26461046,0.26461046 0 0 0 0,-0.26367 l -1.146485,-1.98438 a 0.26461046,0.26461046 0 0 0 -0.228515,-0.13281 z"
           id="path334339" />
        <path
           style="color:#000000;fill:#f9f9f9;stroke-width:0.788953;stroke-linecap:round;stroke-linejoin:round;-inkscape-stroke:none"
           d="m 74.578125,262.73242 c -0.623888,0.01 -1.185547,0.51467 -1.185547,1.18945 -4e-6,0.65443 0.536991,1.19141 1.191406,1.19141 0.654416,0 1.189456,-0.53699 1.189453,-1.19141 a 0.26460996,0.26460996 0 0 0 0,-0.004 c -0.01008,-0.65727 -0.548841,-1.18555 -1.189453,-1.18555 a 0.26460996,0.26460996 0 0 0 -0.0059,0 z"
           id="path334531" />
        <path
           style="color:#000000;fill:#c8dae5;stroke-width:0.788953;stroke-linecap:round;stroke-linejoin:round;-inkscape-stroke:none"
           d="m 74.091797,249.92187 c -0.686874,-0.0859 -1.414888,-0.001 -2.091797,0.28125 -1.353817,0.56533 -2.480876,1.95034 -2.636719,4.2754 -0.04364,0.65117 -0.405838,1.63324 -0.83789,2.0664 l -6.132813,6.15039 c -0.785477,0.78548 -0.784728,2.07657 0.0078,2.86914 0.792574,0.79258 2.086325,0.79259 2.878906,0 a 0.26460996,0.26460996 0 0 0 0.01953,-0.0215 l 4.623047,-5.8457 c 0.318892,-0.40321 1.054547,-0.97042 1.519531,-1.14454 0.896256,-0.3356 1.662932,-0.46172 2.5,-0.38671 0.239443,0.0215 0.477364,-0.0421 0.632813,-0.2129 0.155448,-0.17084 0.192265,-0.42247 0.128906,-0.66015 l -1.142578,-4.28711 c -0.106598,-0.39993 0.0643,-0.80413 0.427734,-0.97852 l 1.908203,-0.91601 a 0.26460996,0.26460996 0 0 0 0.04687,-0.44727 c -0.518408,-0.39961 -1.164688,-0.65624 -1.851562,-0.74219 z"
           id="path333569" />
        <path
           style="color:#000000;fill:#f9f9f9;stroke-width:0.788953;stroke-linecap:round;stroke-linejoin:round;-inkscape-stroke:none"
           d="m 63.839844,263.18555 c -0.241528,0 -0.483268,0.0926 -0.666016,0.27539 -0.3655,0.36549 -0.365499,0.96458 0,1.33008 0.365495,0.3655 0.966535,0.3655 1.332031,0 0.365501,-0.3655 0.365499,-0.96459 0,-1.33008 -0.182747,-0.18275 -0.424488,-0.27539 -0.666015,-0.27539 z"
           id="path334037" />
      </g>
      <path
         id="path39486"
         style="color:#000000;display:inline;fill:#000000;stroke-width:0.788953;stroke-linecap:round;stroke-linejoin:round;-inkscape-stroke:none"
         d="m 69.921876,259.69735 c 0.318894,-0.40321 1.054304,-0.97051 1.519288,-1.14463 0.896257,-0.3356 1.663038,-0.46155 2.500106,-0.38654 0.239445,0.0215 0.477586,-0.0421 0.633037,-0.21291 0.155448,-0.17084 0.192032,-0.42273 0.128674,-0.66042 l -0.0894,-0.33538 c 0.633588,-0.35885 1.328518,-0.84107 1.814359,-1.45366 0.532784,-0.67178 0.797312,-1.55201 0.355534,-2.47272 -0.06285,-0.13148 -0.220189,-0.18739 -0.351917,-0.12506 l -1.862936,0.89452 c -0.132678,0.0629 -0.188802,0.22173 -0.125056,0.35399 0.06362,0.13159 0.221899,0.18666 0.353468,0.12299 l 1.552877,-0.74414 c 0.184118,0.60939 0.05783,1.1431 -0.336416,1.6402 -0.387659,0.48879 -0.976939,0.91993 -1.541507,1.25264 l -0.911572,-3.42046 c -0.106598,-0.39993 0.06445,-0.80385 0.427879,-0.97824 l 1.908413,-0.91622 c 0.176856,-0.0856 0.201975,-0.32735 0.04651,-0.44752 -0.823018,-0.57824 -1.723888,-0.77412 -2.548425,-0.77385 -0.350861,5.3e-4 -0.886851,0.10174 -1.394534,0.31343 -1.353817,0.56533 -2.481204,1.95013 -2.637046,4.27519 -0.04364,0.65117 -0.405622,1.63338 -0.837676,2.06654 l -6.147938,6.16603 c -0.769507,0.79439 -0.762098,2.06874 0.02273,2.85357 0.792576,0.79258 2.086317,0.79258 2.878895,0 z M 68.90019,256.9182 c 0.589447,-0.59096 0.937633,-1.61366 0.990637,-2.4045 0.14564,-2.17286 1.142391,-3.33324 2.31407,-3.82251 0.970306,-0.37618 2.192096,-0.29097 3.039091,0.1416 l -1.484148,0.71778 c -0.596443,0.28618 -0.876597,0.96336 -0.708999,1.59215 0.380947,1.42814 0.762471,2.85931 1.142564,4.28501 0.03045,0.11424 0.0088,0.14961 -0.0098,0.17002 -0.01857,0.0204 -0.07011,0.0519 -0.19327,0.0408 -0.919633,-0.0824 -1.784845,0.0624 -2.734717,0.41806 -0.622493,0.2331 -1.346092,0.80479 -1.747698,1.31258 l -4.622456,5.84048 c -0.591553,0.57195 -1.527839,0.56608 -2.112015,-0.0181 -0.583369,-0.58337 -0.590241,-1.51828 -0.02066,-2.10995 z m 3.102269,-3.67218 c -0.156713,0.0279 -0.240517,0.17191 -0.20374,0.3127 0.142833,0.53583 0.285049,1.07129 0.427881,1.60713 0.0376,0.14133 0.182727,0.22535 0.324012,0.18759 0.140303,-0.0376 0.224036,-0.18133 0.187587,-0.32195 -0.142833,-0.53583 -0.2866,-1.07182 -0.429432,-1.60765 -0.03303,-0.12347 -0.149598,-0.20567 -0.306308,-0.17782 z m 0.713105,2.67724 c -0.157454,0.0285 -0.241472,0.17359 -0.203708,0.31488 l 0.142626,0.53537 c 0.0376,0.14133 0.182727,0.22535 0.324011,0.18758 0.140558,-0.0376 0.224362,-0.18168 0.187585,-0.32246 l -0.142627,-0.53692 c -0.03292,-0.12429 -0.150434,-0.20692 -0.307887,-0.17845 z m -2.717769,5.75072 c -0.09437,3.7e-4 -0.181403,0.051 -0.228409,0.13281 l -1.146183,1.98438 c -0.04686,0.0816 -0.04686,0.18195 0,0.26355 l 1.146183,1.98437 c 0.04701,0.0818 0.134038,0.13244 0.228409,0.13281 h 2.291334 c 0.09437,-3.7e-4 0.181404,-0.051 0.22841,-0.13281 l 0.345715,-0.59789 0.345715,0.59789 c 0.04701,0.0818 0.134038,0.13244 0.22841,0.13281 h 2.291334 c 0.09437,-3.7e-4 0.181403,-0.051 0.228409,-0.13281 l 1.146183,-1.98437 c 0.04686,-0.0816 0.04686,-0.18195 0,-0.26355 l -1.146183,-1.98438 c -0.04701,-0.0818 -0.134038,-0.13244 -0.228409,-0.13281 h -2.291334 c -0.09437,3.7e-4 -0.181404,0.051 -0.22841,0.13281 l -0.345715,0.5979 -0.345715,-0.5979 c -0.04701,-0.0818 -0.134038,-0.13244 -0.22841,-0.13281 z m 0.152448,0.52917 h 1.986441 l 0.421164,0.73019 -0.495578,0.85783 c -0.04686,0.0816 -0.04686,0.18195 0,0.26355 l 0.495578,0.85783 -0.421164,0.73018 h -1.986441 l -0.992188,-1.72082 z m 3.439583,0 h 1.986442 l 0.992187,1.71876 -0.992187,1.72082 h -1.986442 l -0.992187,-1.72082 z m -9.330182,0.18138 c -0.05554,0.136 0.01035,0.2912 0.146762,0.34572 0.181097,0.0734 0.350054,0.18261 0.497644,0.33021 0.147593,0.14759 0.256768,0.31706 0.330213,0.49816 0.05472,0.13621 0.209863,0.20184 0.345716,0.14625 0.135599,-0.0553 0.200456,-0.2103 0.144692,-0.34572 -0.09943,-0.24519 -0.247306,-0.47364 -0.44545,-0.67179 -0.198146,-0.19815 -0.428662,-0.34757 -0.673862,-0.447 -0.15994,-0.0524 -0.280693,0.014 -0.345715,0.14417 z m 6.040975,0.69143 c -0.462743,0.46274 -0.462746,1.22088 0,1.68362 0.462743,0.46274 1.220877,0.46275 1.68362,0 0.102614,-0.1032 0.102614,-0.2699 0,-0.3731 -0.103203,-0.10261 -0.269901,-0.10261 -0.373104,0 -0.260522,0.26053 -0.674815,0.26053 -0.935345,0 -0.260514,-0.26051 -0.260522,-0.67482 0,-0.93534 0.130265,-0.13026 0.296921,-0.19327 0.466641,-0.19327 0.169724,5e-5 0.338415,0.0631 0.468704,0.19327 0.103203,0.10261 0.269901,0.10261 0.373104,0 0.10399,-0.10344 0.10399,-0.27174 0,-0.37518 -0.231364,-0.23123 -0.537569,-0.34717 -0.851307,-0.3437 -0.313735,0.003 -0.608169,0.11956 -0.832313,0.3437 z m 4.283461,-0.34364 c -0.327207,0 -0.628721,0.13263 -0.843878,0.34778 -0.215151,0.21516 -0.347779,0.51461 -0.347781,0.84181 -3e-6,0.65443 0.537244,1.19114 1.191659,1.19114 0.654415,0 1.189593,-0.53672 1.189591,-1.19114 0,-0.3272 -0.13263,-0.62665 -0.347782,-0.84181 -0.103439,-0.10399 -0.271732,-0.10399 -0.375171,0 -0.103989,0.10344 -0.103989,0.27173 0,0.37517 0.119999,0.12 0.193268,0.28243 0.19327,0.46664 0,0.36844 -0.291473,0.66197 -0.659908,0.66197 -0.368432,0 -0.661977,-0.29353 -0.661977,-0.66197 3e-6,-0.18421 0.07327,-0.34664 0.193271,-0.46664 0.119996,-0.11999 0.284493,-0.19379 0.468706,-0.19379 0.146124,-5.8e-4 0.264121,-0.11949 0.263549,-0.26561 -5.29e-4,-0.14532 -0.118229,-0.26299 -0.263549,-0.26355 z m -10.744046,0.4532 c -0.241531,0 -0.483362,0.0926 -0.66611,0.27543 -0.365501,0.36549 -0.365501,0.96465 0,1.33015 0.365495,0.3655 0.966205,0.3655 1.331701,0 0.3655,-0.3655 0.365498,-0.96466 0,-1.33015 -0.182748,-0.18275 -0.424067,-0.27543 -0.665591,-0.27543 z m -0.0011,0.52606 c 0.105177,0 0.210333,0.0408 0.291973,0.12248 0.163269,0.16327 0.163269,0.42067 0,0.58394 -0.163277,0.16328 -0.420669,0.16328 -0.583946,0 -0.163269,-0.16327 -0.163269,-0.42067 0,-0.58394 0.08164,-0.0816 0.186796,-0.12248 0.291973,-0.12248 z"
         sodipodi:nodetypes="ccccscsccccccscccccccsccscccscccccscsccsccccccccccccccccccccccccccccccccccccccccccccccccccccccccccscccsccsscccsscccccscsssscccsssscscscssssssssss" />
    </g>
  </g>
</svg>
