<?xml version="1.0" ?><!DOCTYPE svg  PUBLIC '-//W3C//DTD SVG 1.0//EN'  'http://www.w3.org/TR/2001/REC-SVG-20010904/DTD/svg10.dtd'><svg enable-background="new 0 0 512 512" id="Layer_1" version="1.0" viewBox="0 0 512 512" xml:space="preserve" xmlns="http://www.w3.org/2000/svg" xmlns:xlink="http://www.w3.org/1999/xlink"><g><g><g><path d="M459.4,185.3V460H335V228.9l115.5-49.5C454.7,177.6,459.4,180.7,459.4,185.3z" fill="#0D71BA"/><g><path d="M451.9,185.3c0,43.6,0,87.2,0,130.9c0,47.7,0,95.4,0,143c0,0.3,0,0.5,0,0.8c2.5-2.5,5-5,7.5-7.5c-41.5,0-83,0-124.5,0      c2.5,2.5,5,5,7.5,7.5c0-47.3,0-94.6,0-141.8c0-29.8,0-59.5,0-89.3c-1.2,2.2-2.5,4.3-3.7,6.5c19.4-8.3,38.8-16.6,58.2-24.9      c13.4-5.7,26.7-11.5,40.1-17.2c4.3-1.8,8.6-3.7,12.9-5.5c1.1-0.5,2.3-1,3.4-1.5C455.6,185.3,452.1,187.3,451.9,185.3      c0.4,4.1,3.1,7.5,7.5,7.5c3.8,0,7.9-3.4,7.5-7.5c-1.1-10.9-10.7-16.5-20.7-12.2c-2.8,1.2-5.6,2.4-8.3,3.6      c-12.5,5.4-25,10.7-37.5,16.1c-22.9,9.8-45.8,19.6-68.7,29.4c-0.2,0.1-0.3,0.1-0.5,0.2c-2.3,1-3.7,4.1-3.7,6.5      c0,47.3,0,94.6,0,141.8c0,29.8,0,59.5,0,89.3c0,4.1,3.4,7.5,7.5,7.5c41.5,0,83,0,124.5,0c4.1,0,7.5-3.4,7.5-7.5      c0-43.6,0-87.2,0-130.9c0-47.7,0-95.4,0-143c0-0.3,0-0.5,0-0.8C466.9,175.6,451.9,175.6,451.9,185.3z"/></g></g><g><path d="M335,185.3V460H210.5V228.9L326,179.4C330.3,177.6,335,180.7,335,185.3z" fill="#0D71BA"/><g><path d="M327.5,185.3c0,43.6,0,87.2,0,130.9c0,47.7,0,95.4,0,143c0,0.3,0,0.5,0,0.8c2.5-2.5,5-5,7.5-7.5c-41.5,0-83,0-124.5,0      c2.5,2.5,5,5,7.5,7.5c0-47.3,0-94.6,0-141.8c0-29.8,0-59.5,0-89.3c-1.2,2.2-2.5,4.3-3.7,6.5c19.4-8.3,38.8-16.6,58.2-24.9      c13.4-5.7,26.7-11.5,40.1-17.2c4.3-1.8,8.6-3.7,12.9-5.5c1.1-0.5,2.3-1,3.4-1.5C331.1,185.3,327.7,187.3,327.5,185.3      c0.4,4.1,3.1,7.5,7.5,7.5c3.8,0,7.9-3.4,7.5-7.5c-1.1-10.9-10.7-16.5-20.7-12.2c-2.8,1.2-5.6,2.4-8.3,3.6      c-12.5,5.4-25,10.7-37.5,16.1c-22.9,9.8-45.8,19.6-68.7,29.4c-0.2,0.1-0.3,0.1-0.5,0.2c-2.3,1-3.7,4.1-3.7,6.5      c0,47.3,0,94.6,0,141.8c0,29.8,0,59.5,0,89.3c0,4.1,3.4,7.5,7.5,7.5c41.5,0,83,0,124.5,0c4.1,0,7.5-3.4,7.5-7.5      c0-43.6,0-87.2,0-130.9c0-47.7,0-95.4,0-143c0-0.3,0-0.5,0-0.8C342.5,175.6,327.5,175.6,327.5,185.3z"/></g></g><g><rect fill="#F79420" height="266.7" width="177.8" x="32.7" y="193.3"/><g><path d="M203,193.3c0,44.3,0,88.6,0,132.9c0,44.6,0,89.2,0,133.8c0,0,0,0,0,0c2.5-2.5,5-5,7.5-7.5c-49.9,0-99.9,0-149.8,0      c-9.3,0-18.6,0-28,0c2.5,2.5,5,5,7.5,7.5c0-44.3,0-88.6,0-132.9c0-44.6,0-89.2,0-133.8c0,0,0,0,0,0c-2.5,2.5-5,5-7.5,7.5      c49.9,0,99.9,0,149.8,0c9.3,0,18.6,0,28,0c9.7,0,9.7-15,0-15c-49.9,0-99.9,0-149.8,0c-9.3,0-18.6,0-28,0c-4.1,0-7.5,3.4-7.5,7.5      c0,44.3,0,88.6,0,132.9c0,44.6,0,89.2,0,133.8c0,0,0,0,0,0c0,4.1,3.4,7.5,7.5,7.5c49.9,0,99.9,0,149.8,0c9.3,0,18.6,0,28,0      c4.1,0,7.5-3.4,7.5-7.5c0-44.3,0-88.6,0-132.9c0-44.6,0-89.2,0-133.8c0,0,0,0,0,0C218,183.6,203,183.6,203,193.3z"/></g></g><g><path d="M192.7,128.6v29.1H50.5v-29.1c0-3.6,2.9-6.4,6.4-6.4h129.4C189.9,122.2,192.7,125.1,192.7,128.6z" fill="#EC2127"/><g><path d="M185.2,128.6c0,9.7,0,19.4,0,29.1c2.5-2.5,5-5,7.5-7.5c-46.8,0-93.7,0-140.5,0c-0.6,0-1.2,0-1.7,0c2.5,2.5,5,5,7.5,7.5      c0-5.8,0-11.7,0-17.5c0-3.2,0-6.4,0-9.6c0-0.6,0-1.3,0-1.9c0,0.6-1.2,1-0.9,1c8,0,16.1,0,24.1,0c30.1,0,60.2,0,90.3,0      c3.6,0,7.3,0,10.9,0c1,0,2,0,3,0C187.1,129.7,185.4,129.8,185.2,128.6c0.4,4.1,3.1,7.5,7.5,7.5c3.8,0,7.9-3.4,7.5-7.5      c-0.8-8.4-6.6-13.9-15.1-13.9c-3.5,0-6.9,0-10.4,0c-13.9,0-27.8,0-41.7,0c-25.1,0-50.2,0-75.3,0c-4.2,0-7.5,1.4-10.7,4.1      c-4.1,3.4-4.1,8.9-4.1,13.7c0,8.4,0,16.9,0,25.3c0,4.1,3.4,7.5,7.5,7.5c46.8,0,93.7,0,140.5,0c0.6,0,1.2,0,1.7,0      c4.1,0,7.5-3.4,7.5-7.5c0-9.7,0-19.4,0-29.1C200.2,119,185.2,119,185.2,128.6z"/></g></g><g><path d="M228.3,164.2v22.7c0,3.5-2.9,6.4-6.4,6.4H21.4c-3.6,0-6.5-2.9-6.5-6.4v-22.7c0-3.6,2.9-6.5,6.5-6.5h200.5     C225.4,157.8,228.3,160.6,228.3,164.2z" fill="#C1272D"/><g><path d="M220.8,164.2c0,6.1,0,12.1,0,18.2c0,1.2,0,2.5,0,3.7c0,1.6-0.1-0.1,1.1-0.2c-0.4,0-0.7,0-1.1,0c-7.2,0-14.4,0-21.6,0      c-30,0-60,0-90,0c-26.3,0-52.7,0-79,0c-2.6,0-5.1,0-7.7,0c-0.4,0-0.7,0-1.1,0c0.9,0,1,1.7,1,0.6c0-1.3,0-2.7,0-4      c0-6.1,0-12.1,0-18.2c0,1.1-1.8,1-0.4,1c0.9,0,1.8,0,2.7,0c54.6,0,109.2,0,163.7,0c8.2,0,16.4,0,24.6,0c2.2,0,4.5,0,6.7,0      C222.6,165.3,220.9,165.7,220.8,164.2c0.4,4.1,3.1,7.5,7.5,7.5c3.8,0,7.9-3.4,7.5-7.5c-0.8-8.1-6.3-14-14.7-14      c-2.4,0-4.8,0-7.1,0c-10.6,0-21.2,0-31.8,0c-31.8,0-63.5,0-95.3,0c-21.3,0-42.7,0-64,0c-5.8,0-11,2.3-13.9,7.7      c-3.1,5.7-1.5,14.9-1.5,21c0,8.2-0.3,18.1,9.4,21.1c2.6,0.8,5,0.8,7.6,0.8c54.4,0,108.8,0,163.2,0c10.9,0,21.8,0,32.7,0      c8.4,0,15.4-5.6,15.4-14.4c0-7.4,0-14.8,0-22.2C235.8,154.5,220.8,154.5,220.8,164.2z"/></g></g><g><g><path d="M221.9,165.3c9.7,0,9.7-15,0-15C212.2,150.3,212.2,165.3,221.9,165.3L221.9,165.3z"/></g></g><g><path d="M477.2,466.5v21.1H14.9v-21.1c0-3.6,2.9-6.4,6.5-6.4h449.4C474.3,460,477.2,462.9,477.2,466.5z" fill="#736357"/><g><path d="M469.7,466.5c0,7,0,14,0,21.1c2.5-2.5,5-5,7.5-7.5c-31,0-62,0-93,0c-63.5,0-127.1,0-190.6,0c-51.8,0-103.6,0-155.5,0      c-7.7,0-15.4,0-23.1,0c2.5,2.5,5,5,7.5,7.5c0-6.2,0-12.3,0-18.5c0-0.8,0-1.7,0-2.5c0,0.4-0.5,1-1,1c0.2,0,0.5,0,0.7,0      c3.8,0,7.5,0,11.3,0c18.7,0,37.4,0,56.1,0c61.6,0,123.3,0,184.9,0c55,0,110,0,164.9,0c7.7,0,15.5,0,23.2,0c2.1,0,4.1,0,6.2,0      C471.5,467.5,469.9,467.9,469.7,466.5c0.4,4.1,3.1,7.5,7.5,7.5c3.8,0,7.9-3.4,7.5-7.5c-0.8-7.8-6-13.9-14.3-13.9      c-1.1,0-2.2,0-3.3,0c-5.4,0-10.9,0-16.3,0c-21.2,0-42.4,0-63.5,0c-63.1,0-126.2,0-189.2,0c-51.7,0-103.5,0-155.2,0      c-6.7,0-13.3,0-20,0c-7.1,0-12.8,3.7-15,10.6c-1.2,3.8-0.4,8.9-0.4,12.8c0,3.8,0,7.7,0,11.5c0,4.1,3.4,7.5,7.5,7.5      c31,0,62,0,93,0c63.5,0,127.1,0,190.6,0c51.8,0,103.6,0,155.5,0c7.7,0,15.4,0,23.1,0c4.1,0,7.5-3.4,7.5-7.5c0-7,0-14,0-21.1      C484.7,456.8,469.7,456.8,469.7,466.5z"/></g></g><g><g><path d="M431.4,363.1c0-12.1,0-24.3,0-36.4c0-8.4-4.6-16.4-14.1-16.4c-5.5,0-11.1,0-16.6,0c-11.9,0-37.6-4.5-37.6,14.1      c0,12.4,0,24.8,0,37.2c0,0.5,0,1,0,1.5c0,9.7,15,9.7,15,0c0-11.1,0-22.2,0-33.3c0-1.7,0-3.5,0-5.2c0,0.5-2,0.8,0.4,0.8      c6.1,0,12.2,0,18.3,0c6.3,0,12.5,0,18.8,0c2.8,0,0.8,0.3,0.8-1c0,1.6,0,3.2,0,4.8c0,11.3,0,22.7,0,34      C416.4,372.7,431.4,372.7,431.4,363.1L431.4,363.1z"/></g></g><g><g><path d="M253.6,363.1c0-11.1,0-22.2,0-33.3c0-1.7,0-3.5,0-5.2c0,0.5-2,0.8,0.4,0.8c6.1,0,12.2,0,18.3,0c6.3,0,12.6,0,18.8,0      c2.8,0,0.8,0.3,0.8-1c0,1.6,0,3.2,0,4.8c0,11.3,0,22.7,0,34c0,9.7,15,9.7,15,0c0-12.1,0-24.3,0-36.4c0-8.4-4.6-16.4-14.1-16.4      c-5.5,0-11.1,0-16.6,0c-11.9,0-37.6-4.5-37.6,14.1c0,12.4,0,24.8,0,37.2c0,0.5,0,1,0,1.5C238.6,372.7,253.6,372.7,253.6,363.1      L253.6,363.1z"/></g></g></g><g><polygon fill="#FAED23" points="158,59.7 158,122.2 85.2,122.2 85.2,45.5   "/><g><path d="M150.5,59.7c0,20.8,0,41.7,0,62.5c2.5-2.5,5-5,7.5-7.5c-24.3,0-48.5,0-72.8,0c2.5,2.5,5,5,7.5,7.5c0-25.6,0-51.1,0-76.7     c-3.2,2.4-6.3,4.8-9.5,7.2c24.3,4.7,48.5,9.4,72.8,14.1c9.4,1.8,13.5-12.6,4-14.5c-24.3-4.7-48.5-9.4-72.8-14.1     c-4.7-0.9-9.5,2.1-9.5,7.2c0,25.6,0,51.1,0,76.7c0,4.1,3.4,7.5,7.5,7.5c24.3,0,48.5,0,72.8,0c4.1,0,7.5-3.4,7.5-7.5     c0-20.8,0-41.7,0-62.5C165.5,50,150.5,50,150.5,59.7z"/></g></g><g><g><g><path d="M497.1,80.8c-0.1,7.8-6.3,14-14.1,14.1H285.9c-7.8,0-14.1-6.3-14.1-14.1c0-6,3.8-11.1,9.1-13.1      c3-1.1,5-4,5-7.2c0-4.3-3.5-7.8-7.8-7.8h-76.7c-7.8,0-14-6.3-14.1-14.1c0-3.7,1.5-7.3,4.2-9.9c2.6-2.7,6.2-4.2,9.9-4.2h197.1      c7.8,0,14.1,6.3,14.1,14.1c0,3.7-1.5,7.3-4.2,9.9c-1.4,1.4-3.1,2.5-4.9,3.2c-3,1.2-5,4-5,7.2c0,2.1,0.9,4.1,2.3,5.5      c1.4,1.4,3.3,2.3,5.5,2.3H483C490.8,66.7,497,73,497.1,80.8z" fill="#C7B299"/><g><path d="M489.6,80.8c-0.5,8.3-10.3,6.6-15.9,6.6c-11.1,0-22.2,0-33.4,0c-31.9,0-63.8,0-95.7,0c-19.4,0-38.9,0-58.3,0       c-6.6,0-9.4-8.3-3.8-12.1c2.5-1.7,4.9-2.4,7.1-4.6c2.3-2.3,3.6-5.7,3.8-8.9c0.6-6.4-3-12.7-8.9-15.2c-4.2-1.8-8.5-1.4-12.9-1.4       c-6.7,0-13.3,0-20,0c-14.7,0-29.3,0-44,0c-3.2,0-7.6,0.7-10.2-1.5c-5.3-4.4-1.1-11.7,5-11.7c20.5,0,41,0,61.6,0       c31.8,0,63.5,0,95.3,0c10.6,0,21.2,0,31.8,0c2.3,0,4.6,0,7,0c6,0,9.6,6.4,5.3,11.2c-1.2,1.3-3,1.9-4.6,2.7       c-2.3,1.1-4,3.4-5.5,5.5c-3.2,4.7-2.2,11.1,0.3,15.7c2.8,5.2,9,7.1,14.5,7.1c9.3,0,18.6,0,27.9,0c12,0,24,0,36,0       C477.6,74.2,489.1,72.1,489.6,80.8c0.5,9.6,15.5,9.7,15,0c-0.6-11.7-9.5-21.6-21.6-21.6c-3.5,0-7,0-10.5,0c-15.3,0-30.7,0-46,0       c-5.7,0-11.4,0-17.1,0c-1,0-2,0-3,0c-0.2,0-0.5-0.3-0.2-0.4c3-2.2,6.1-3.3,8.7-6.2c9.4-10.3,5.4-26.5-6.2-33.1       c-3.8-2.1-8-2.5-12.2-2.5c-53.7,0-107.4,0-161.1,0c-9.6,0-19.3,0-28.9,0c-1.6,0-3.3,0-4.9,0c-13.2,0-23.2,12-21.3,24.9       c1.5,10.5,11,18.2,21.5,18.2c3.9,0,7.8,0,11.7,0c15.4,0,30.9,0,46.3,0c5.4,0,10.8,0,16.1,0c0.8,0,1.5,0,2.3,0       c-0.3,0,0.6,0.1,0.3,0.4c-2.7,1.9-5.6,2.9-8,5.4c-9.3,9.1-7.2,25.3,3.3,32.5c4.2,2.9,9,3.9,14,3.9c21.8,0,43.6,0,65.4,0       c31.5,0,63.1,0,94.6,0c9.9,0,19.8,0,29.7,0c1.8,0,3.7,0,5.5,0c10.2,0,18.8-7.2,21.2-16.9c0.4-1.5,0.5-3.1,0.5-4.7       C505.1,71.1,490.1,71.2,489.6,80.8z"/></g></g></g></g></g></svg>